<svg xmlns="http://www.w3.org/2000/svg" xmlns:xlink="http://www.w3.org/1999/xlink" width="200" height="200" viewBox="0 0 200 200">
  <defs>
    <clipPath id="clip-path">
      <path id="パス_55077" data-name="パス 55077" d="M162.328,100.517a100,100,0,1,0,100-100,100,100,0,0,0-100,100" transform="translate(-162.328 -0.517)" fill="none"/>
    </clipPath>
  </defs>
  <g id="グループ_9606" data-name="グループ 9606" transform="translate(-162.328 -0.517)">
    <g id="グループ_9605" data-name="グループ 9605" transform="translate(162.328 0.517)" clip-path="url(#clip-path)">
      <rect id="長方形_6622" data-name="長方形 6622" width="200.046" height="206.523" transform="translate(-0.023 -0.023)" fill="#f1f1f1"/>
      <rect id="長方形_6623" data-name="長方形 6623" width="200.046" height="200.046" transform="translate(-0.023 -0.023)" fill="#f1f1f1"/>
      <path id="パス_55071" data-name="パス 55071" d="M242.5,109.542a158.475,158.475,0,0,1-22.706-5.406c-10.163-3.46-16.434-33.084-7.568-55.358s24.434-24.651,24.434-24.651A42.827,42.827,0,0,1,273.423,31.7c17.948,13.624,20.759,67.035,3.676,72.873s-23.787,5.622-23.787,5.622Z" transform="translate(-148.837 6.062)" fill="#121448"/>
      <path id="パス_55072" data-name="パス 55072" d="M247.5,169.48c-21.754,0-23.586-51.273-21.592-52.271s3.5-2.878,5.8-5.747c1.145-1.422,6.892-8.4,2.17-11.142-7.664-4.45-12.1-16.075-12.1-16.075-3.841-.451-10.511-9.523-8.582-13.774,2.117-4.667,6.774-2.258,6.774-2.258s-2.257-14.026,3.364-21.594S238.9,30.833,238.9,30.833l14.272,12.11,23.569,16-2.3,9.269s4.657-2.41,6.775,2.258c1.926,4.252-4.743,13.324-8.582,13.774,0,0-4.439,11.625-12.1,16.075-4.723,2.742.137,8.235,2.17,11.142.948,1.36,4.52,4.533,5.8,5.747s1.07,52.271-21.008,52.271" transform="translate(-147.401 8.439)" fill="#fff"/>
      <path id="パス_55073" data-name="パス 55073" d="M263.623,170.456H224.13l7.652-58.468s11.308,9.155,12.816,9.155,13.355-9.477,13.355-9.477Z" transform="translate(-144.07 32.32)" fill="#b7c8d9"/>
      <path id="パス_55074" data-name="パス 55074" d="M285.424,175.319s-.369-31.574-3.522-49.206c-2.369-13.247-5.726-15.837-8.672-18.01-3.175-2.345-13.514-9.883-13.514-9.883-1.83-1.4-3.77-3.016-3.77-3.016s-1.184,9.588-6.677,13.035c-3.193,2-2.928,8.927-3.123,15.293-.215,7-.215,51.788-.215,51.788Z" transform="translate(-137.629 27.457)" fill="#121448"/>
      <path id="パス_55075" data-name="パス 55075" d="M274.5,50.139c-10.163-13.839-38.49-20.976-38.49-20.976-16.585,1.939-22.9,41.8-22.9,41.8,2.117-4.667,6.774-2.258,6.774-2.258a108.254,108.254,0,0,1,3.148-14.891c2.162-7.137,16.218-20.976,16.218-20.976s4.042,20.881,32.869,30.489c1.946.649,2.24,5.377,2.24,5.377a5.71,5.71,0,0,1,4.417-.271s2.96-8.44-4.279-18.3" transform="translate(-147.323 7.946)" fill="#121448"/>
      <path id="パス_55076" data-name="パス 55076" d="M202.626,175.319s.369-31.574,3.522-49.206c2.369-13.247,5.726-15.837,8.67-18.01,3.176-2.345,13.515-9.883,13.515-9.883,1.83-1.4,3.77-3.016,3.77-3.016s1.184,9.588,6.677,13.035c3.193,2,2.928,8.927,3.123,15.293.215,7,.215,51.788.215,51.788Z" transform="translate(-150.423 27.457)" fill="#121448"/>
      <path id="パス_55081" data-name="パス 55081" d="M270.391,38.6a.773.773,0,0,1-1.139-.953c1.271-2.772,3.724-7.219,7.07-9.161,2.293-1.33,7.155-1.843,8.4.9,1.565,3.446-1.095,5.55-6.393,5.836-3.021.163-4.785,1.338-7.937,3.384" transform="translate(-130.76 7.426)" fill="#b7c8d9"/>
      <path id="パス_55082" data-name="パス 55082" d="M271.943,42.136a.687.687,0,0,1-.364-1.27c2.321-1.411,6.348-3.465,9.782-3.228,2.354.162,6.195,2.209,5.745,4.849-.564,3.322-3.574,3.544-7.624,1.113-2.307-1.386-4.195-1.4-7.539-1.464" transform="translate(-130.148 10.444)" fill="#b7c8d9"/>
    </g>
  </g>
</svg>
