<svg xmlns="http://www.w3.org/2000/svg" xmlns:xlink="http://www.w3.org/1999/xlink" width="200" height="200" viewBox="0 0 200 200">
  <defs>
    <clipPath id="clip-path">
      <path id="パス_55069" data-name="パス 55069" d="M.018,100.517a100,100,0,1,0,100-100,100,100,0,0,0-100,100" transform="translate(-0.018 -0.517)" fill="none"/>
    </clipPath>
  </defs>
  <g id="グループ_9602" data-name="グループ 9602" transform="translate(-0.018 -0.517)">
    <g id="グループ_9601" data-name="グループ 9601" transform="translate(0.018 0.517)" clip-path="url(#clip-path)">
      <rect id="長方形_6619" data-name="長方形 6619" width="200.046" height="200.046" transform="translate(-0.023 -0.023)" fill="#f1f1f1"/>
      <rect id="長方形_6620" data-name="長方形 6620" width="200.046" height="200.046" transform="translate(0.694 -0.67)" fill="#f1f1f1"/>
      <path id="パス_55060" data-name="パス 55060" d="M112.284,67.726s4.657-2.41,6.774,2.258c1.929,4.252-4.741,13.324-8.58,13.774,0,0-1.85,11.625-9.514,16.075-2.648,1.538-1.325,11.248-.422,13.732,0,0-4.38,11.554-15.365,11.554s-15.626-11.554-15.626-11.554c.9-2.483,2.226-12.194-.424-13.732-7.664-4.45-9.512-16.075-9.512-16.075-3.838-.451-10.509-9.523-8.581-13.774,2.117-4.667,6.774-2.258,6.774-2.258s.65-23.857,13.861-31.611,39.873-8,40.614,31.611" transform="translate(14.953 8.794)" fill="#fff"/>
      <path id="パス_55061" data-name="パス 55061" d="M81.553,100.529c11.978,0,19.039,11.462,19.039,11.462,0,26.422-19.039,36.043-19.039,36.043s-19.039-9.621-19.039-36.043c0,0,7.061-11.462,19.039-11.462" transform="translate(18.446 29.03)" fill="#fff"/>
      <path id="パス_55062" data-name="パス 55062" d="M60.768,100.719l5.8-5.748,15.5,7.2-17.028,14.7Z" transform="translate(17.93 27.388)" fill="#b7c8d9"/>
      <path id="パス_55063" data-name="パス 55063" d="M98.512,100.719l-5.8-5.748-15.5,7.2,17.028,14.7Z" transform="translate(22.788 27.388)" fill="#b7c8d9"/>
      <path id="パス_55064" data-name="パス 55064" d="M142.033,175.028s-2.872-30.252-6.605-47.77-7.467-21.539-10.769-23.12-14.109-4.73-14.109-4.73-12.769,32.157-21.3,43.5c-8.532-11.344-21.3-43.5-21.3-43.5s-10.805,3.151-14.107,4.73-7.037,5.6-10.77,23.12-6.605,47.77-6.605,47.77Z" transform="translate(10.75 28.699)" fill="#121448"/>
      <path id="パス_55065" data-name="パス 55065" d="M112.247,70.542a5.709,5.709,0,0,1,4.417-.271s1.548-3.579,1.89-15.8a40.95,40.95,0,0,0-4.837-19.2c-3.176-5.437-24.932-24.2-46.115-2.671-5.038-1.947-10.419,1.6-14.426,8.931C48.54,50,52.054,71.086,52.69,70.643c2.25-1.565,5.081-.1,5.081-.1s2.88-.8,4.354-10.059c0,0-.82-7.39,11.317-17.7,35.495-2.061,32.289,17.29,38.8,27.755" transform="translate(14.99 5.978)" fill="#121448"/>
      <path id="パス_55066" data-name="パス 55066" d="M80.11,74.234c4.122,1.488,12.71,1.374,12.71,1.374s-5.152-8.7-12.71-5.267c-7.558-3.435-12.71,5.267-12.71,5.267s8.587.114,12.71-1.374" transform="translate(19.889 19.874)" fill="#121448"/>
      <path id="パス_55067" data-name="パス 55067" d="M80.844,140.159a2.958,2.958,0,1,1-2.959-2.959,2.959,2.959,0,0,1,2.959,2.959" transform="translate(22.113 39.864)" fill="#fff"/>
      <path id="パス_55068" data-name="パス 55068" d="M80.844,147.741a2.958,2.958,0,1,1-2.959-2.959,2.959,2.959,0,0,1,2.959,2.959" transform="translate(22.113 42.104)" fill="#fff"/>
      <path id="パス_55080" data-name="パス 55080" d="M46.394,50.225c-2.955,0-5.319-.974-6.383-2.783a4,4,0,0,1-.5-1.435A9.308,9.308,0,0,1,33.7,43.018a5.45,5.45,0,0,1-.948-1.726,7.853,7.853,0,0,1-5.033-1.057c-1.224-.864-2.461-2.635-1.407-6.162,2.131-7.124,8.939-11.259,17.744-10.808a.97.97,0,0,1,.92,1.021.982.982,0,0,1-1.02.92c-7.879-.412-13.921,3.2-15.781,9.424-.582,1.943-.358,3.3.666,4.02a5.908,5.908,0,0,0,3.654.7,6.5,6.5,0,0,1,.439-2.008A12.432,12.432,0,0,1,40.139,30.3c4.489-1.556,5.942.437,6.28,1.084.878,1.679-.032,3.964-2.214,5.556a24.576,24.576,0,0,1-9.476,4.1,3.724,3.724,0,0,0,.478.76,7.315,7.315,0,0,0,4.454,2.267,8.191,8.191,0,0,1,2.163-3.377,8.676,8.676,0,0,1,5.769-2.571,2.88,2.88,0,0,1,2.65,1.634,2.7,2.7,0,0,1-.359,2.9,10.554,10.554,0,0,1-6.568,3.358,12.238,12.238,0,0,1-1.776.146,2.027,2.027,0,0,0,.145.3c.916,1.556,4.161,2.489,8.59,1.258a.971.971,0,0,1,.519,1.872,16.608,16.608,0,0,1-4.4.637m1.2-10.167a6.772,6.772,0,0,0-4.384,1.992,7.093,7.093,0,0,0-1.535,2.158,10.412,10.412,0,0,0,1.343-.12,8.751,8.751,0,0,0,5.373-2.68.764.764,0,0,0,.093-.834.924.924,0,0,0-.891-.516m-4.451-8.393a7.4,7.4,0,0,0-2.367.469,10.56,10.56,0,0,0-6.032,5.9,4.891,4.891,0,0,0-.282,1.056,22.482,22.482,0,0,0,8.6-3.724c1.474-1.077,1.991-2.413,1.64-3.084-.192-.368-.718-.619-1.557-.619" transform="translate(7.631 6.194)" fill="#121448"/>
    </g>
  </g>
</svg>
