<svg id="グループ_9589" data-name="グループ 9589" xmlns="http://www.w3.org/2000/svg" xmlns:xlink="http://www.w3.org/1999/xlink" width="120" height="120" viewBox="0 0 120 120">
  <defs>
    <clipPath id="clip-path">
      <path id="パス_55052" data-name="パス 55052" d="M324.639,60.018a60,60,0,1,0,60-60,60,60,0,0,0-60,60" transform="translate(-324.639 -0.018)" fill="none"/>
    </clipPath>
  </defs>
  <g id="グループ_9588" data-name="グループ 9588" transform="translate(0 0)" clip-path="url(#clip-path)">
    <rect id="長方形_6613" data-name="長方形 6613" width="120.028" height="120.028" transform="translate(-0.014 -0.014)" fill="#f1f1f1"/>
    <rect id="長方形_6614" data-name="長方形 6614" width="120.028" height="120.028" transform="translate(-0.014 -0.014)" fill="#f1f1f1"/>
    <path id="パス_55045" data-name="パス 55045" d="M412.268,54.51s2.794-1.445,4.064,1.356c1.157,2.551-2.845,7.993-5.148,8.265,0,0-1.11,6.975-5.708,9.645-1.589.922-.8,6.749-.253,8.238,0,0-2.628,6.933-9.219,6.933s-9.375-6.933-9.375-6.933c.542-1.489,1.335-7.316-.254-8.238-4.6-2.67-5.707-9.645-5.707-9.645-2.3-.271-6.305-5.714-5.149-8.265,1.27-2.8,4.064-1.356,4.064-1.356s-3.9-13.28,2.478-19.138,25.5-6.032,27.57-.345,2.637,19.483,2.637,19.483" transform="translate(-335.926 -6.889)" fill="#fff"/>
    <path id="パス_55046" data-name="パス 55046" d="M398.558,102.228c7.187,0,11.423,6.877,11.423,6.877,0,15.853-11.423,21.626-11.423,21.626s-11.423-5.773-11.423-21.626c0,0,4.237-6.877,11.423-6.877" transform="translate(-338.559 -22.784)" fill="#b7c8d9"/>
    <path id="パス_55047" data-name="パス 55047" d="M396.617,136.245l-1.723-11.459,3.188-17.059c-1.206-.776-2.24-3.877-2.24-3.877a6.9,6.9,0,0,1,8.89,0s-1.034,3.1-2.24,3.877l3.188,17.059-1.723,11.459Z" transform="translate(-340.288 -22.784)" fill="#121448"/>
    <path id="パス_55048" data-name="パス 55048" d="M385.389,100.119l3.483-3.449,9.3,4.32-10.217,8.817Z" transform="translate(-338.17 -21.546)" fill="#b7c8d9"/>
    <path id="パス_55049" data-name="パス 55049" d="M414.612,100.119l-3.483-3.449-9.3,4.32,10.217,8.817Z" transform="translate(-341.833 -21.546)" fill="#b7c8d9"/>
    <path id="パス_55050" data-name="パス 55050" d="M424.427,144.393s-1.723-16.065-3.963-26.577-4.48-12.924-6.461-13.871-8.465-2.838-8.465-2.838-7.661,19.294-12.78,26.1c-5.119-6.806-12.781-26.1-12.781-26.1s-6.483,1.89-8.464,2.838-4.222,3.36-6.462,13.871-3.963,26.577-3.963,26.577Z" transform="translate(-332.757 -22.534)" fill="#121448"/>
    <path id="パス_55051" data-name="パス 55051" d="M415.221,41.932c.12-4.271-1.551-4.265-1.551-6.72s-.8-6.535-2.2-8.271c-1.38-1.71-5.557-4.653-16.542-4.653A16.031,16.031,0,0,0,380.2,31.851c-9.951,1.163-4.978,22.1-4.978,22.1,1.27-2.8,4.064-1.355,4.064-1.355s-.638-7.953-.25-10.279,4.265-8.013,4.265-8.013a92.5,92.5,0,0,0,24.425,1.938s2.455,3.619,2.585,5.686S411.97,52.6,411.97,52.6a3.426,3.426,0,0,1,2.651-.162s.395-3.17.6-10.5" transform="translate(-335.629 -4.978)" fill="#121448"/>
  </g>
</svg>
