<svg xmlns="http://www.w3.org/2000/svg" xmlns:xlink="http://www.w3.org/1999/xlink" width="155" height="155" viewBox="0 0 155 155">
  <defs>
    <clipPath id="clip-path">
      <path id="パス_55015" data-name="パス 55015" d="M.018,77.518a77.5,77.5,0,1,0,77.5-77.5,77.5,77.5,0,0,0-77.5,77.5" transform="translate(-0.018 -0.018)" fill="none"/>
    </clipPath>
  </defs>
  <g id="グループ_9534" data-name="グループ 9534" transform="translate(-0.018 -0.018)">
    <g id="グループ_9533" data-name="グループ 9533" transform="translate(0.018 0.018)" clip-path="url(#clip-path)">
      <rect id="長方形_6607" data-name="長方形 6607" width="155.036" height="155.036" transform="translate(-0.018 -0.018)" fill="#f1f1f1"/>
      <rect id="長方形_6608" data-name="長方形 6608" width="155.036" height="155.036" transform="translate(-0.018 -0.018)" fill="#cbccd1"/>
      <path id="パス_55008" data-name="パス 55008" d="M99.5,58.341s3.792-1.962,5.515,1.838c1.57,3.462-3.86,10.843-6.987,11.214,0,0-1.506,9.464-7.745,13.088-2.156,1.252-1.079,9.158-.343,11.179,0,0-3.566,9.406-12.509,9.406S64.709,95.66,64.709,95.66c.735-2.022,1.807-9.927-.345-11.179-6.24-3.622-7.745-13.088-7.745-13.088-3.125-.368-8.556-7.753-6.987-11.214,1.724-3.8,5.515-1.838,5.515-1.838l-1.478-10.3,7.715-9.82,32.266-.936s9.124,2.838,5.848,21.059" transform="translate(0.178 0.13)" fill="#fff"/>
      <path id="パス_55009" data-name="パス 55009" d="M77.273,101.269c9.752,0,15.5,9.332,15.5,9.332,0,21.511-15.5,29.344-15.5,29.344s-15.5-7.831-15.5-29.344c0,0,5.749-9.332,15.5-9.332" transform="translate(0.227 0.383)" fill="#b7c8d9"/>
      <path id="パス_55010" data-name="パス 55010" d="M72.262,147.426l-2.338-15.549,4.325-23.146c-1.635-1.052-3.04-5.261-3.04-5.261a11.055,11.055,0,0,1,6.032-2.2,11.057,11.057,0,0,1,6.031,2.2s-1.406,4.209-3.04,5.261l4.325,23.146-2.338,15.549Z" transform="translate(0.259 0.383)" fill="#121448"/>
      <path id="パス_55011" data-name="パス 55011" d="M59.939,100.109l4.726-4.679,12.616,5.862L63.418,113.255Z" transform="translate(0.22 0.36)" fill="#b7c8d9"/>
      <path id="パス_55012" data-name="パス 55012" d="M94.553,100.109l-4.726-4.68-12.616,5.862,13.864,11.964Z" transform="translate(0.288 0.36)" fill="#b7c8d9"/>
      <path id="パス_55013" data-name="パス 55013" d="M120.356,154.607s-2.338-17.58-5.378-31.843-6.079-17.536-8.768-18.822-11.486-3.85-11.486-3.85-10.4,26.175-17.341,35.412c-6.946-9.236-17.341-35.416-17.341-35.416s-8.8,2.565-11.485,3.85-5.729,4.559-8.769,18.822S34.4,154.607,34.4,154.607Z" transform="translate(0.118 0.379)" fill="#121448"/>
      <path id="パス_55014" data-name="パス 55014" d="M103.915,43.943c.163-5.8-2.222-9.681-5.364-12.074,0-3.332,2.949-7.369,1.047-9.724-11.818-.6-8.309-4.857-23.215-4.857S54.121,30.374,54.121,30.374C43.5,32.02,49.638,60.257,49.638,60.257c1.724-3.8,5.515-1.838,5.515-1.838s.386-5.29.913-8.446c3.441-1.2,5.385-7.48,5.385-7.48a55.489,55.489,0,0,0,30.368-2.843s5.36,4.374,5.535,7.18S99.5,58.418,99.5,58.418a4.649,4.649,0,0,1,3.6-.221s.536-4.3.814-14.256" transform="translate(0.172 0.05)" fill="#121448"/>
    </g>
  </g>
</svg>
