<svg id="グループ_9591" data-name="グループ 9591" xmlns="http://www.w3.org/2000/svg" xmlns:xlink="http://www.w3.org/1999/xlink" width="120" height="120" viewBox="0 0 120 120">
  <defs>
    <clipPath id="clip-path">
      <path id="パス_55059" data-name="パス 55059" d="M486.949,60.018a60,60,0,1,0,60-60,60,60,0,0,0-60,60" transform="translate(-486.949 -0.018)" fill="none"/>
    </clipPath>
  </defs>
  <g id="グループ_9590" data-name="グループ 9590" transform="translate(0 0)" clip-path="url(#clip-path)">
    <rect id="長方形_6615" data-name="長方形 6615" width="120.028" height="120.028" transform="translate(-0.014 -0.014)" fill="#f1f1f1"/>
    <rect id="長方形_6616" data-name="長方形 6616" width="120.028" height="120.028" transform="translate(-0.014 -0.014)" fill="#f1f1f1"/>
    <path id="パス_55053" data-name="パス 55053" d="M553.74,74.576S548.4,92.132,539.615,91.22c1.284-1.053-.689-12.407-1.379-18.783-.677-6.261-6.2-19.041-2.413-28.862,5.18-13.419,13.5-16.544,15.164-17.232s10.167-2.757,15.595,1.9c8.04.5,13.907,13.916,13.01,24.554-.925,10.966-7.065,27.657-3.619,33.687-10.25,3.5-15.867-12.947-15.867-12.947Z" transform="translate(-497.542 -5.647)" fill="#121448"/>
    <path id="パス_55054" data-name="パス 55054" d="M557.911,111.565c13.052,0,14.152-28.432,12.955-29.031s-2.1-1.727-3.483-3.448c-.686-.853-4.135-5.04-1.3-6.685,4.6-2.67,7.262-9.645,7.262-9.645,2.3-.27,6.306-5.714,5.148-8.265-1.27-2.8-4.064-1.355-4.064-1.355s1.355-8.415-2.018-12.956a29.477,29.477,0,0,0-5.77-6.218l-12.135,4.012-14.141,9.6,1.38,5.561s-2.794-1.446-4.064,1.355c-1.156,2.551,2.845,7.994,5.149,8.265,0,0,2.664,6.975,7.262,9.645,2.834,1.645-.082,4.941-1.3,6.685a39.384,39.384,0,0,1-3.483,3.448c-.77.728-.641,29.031,12.606,29.031" transform="translate(-498.203 -7.579)" fill="#fff"/>
    <path id="パス_55055" data-name="パス 55055" d="M572.446,144.1h-23.7l2.26-41.3a23.136,23.136,0,0,0,7.765,2.391c.726.085,1.482,5.21,2.256,5.21.689,0,1.355-5.117,1.993-5.191a18.775,18.775,0,0,0,7.574-2.6Z" transform="translate(-500.714 -22.869)" fill="#121448"/>
    <path id="パス_55056" data-name="パス 55056" d="M542.022,41.65c6.1-8.3,22.308-9.24,22.308-9.24,9.951,1.163,14.524,21.735,14.524,21.735-1.27-2.8-4.064-1.355-4.064-1.355s.051-2.546-5.032-7.2c-3.3-3.021-3.618-10.339-3.618-10.339s-5.347,4.207-19.644,9.994c-3.619,1.465-4.391,7.543-4.391,7.543a3.426,3.426,0,0,0-2.651-.162s-1.776-5.064,2.567-10.978" transform="translate(-498.564 -7.233)" fill="#121448"/>
    <path id="パス_55057" data-name="パス 55057" d="M527.247,142.216s.221-18.944,2.113-29.524c1.422-7.948,3.435-9.5,5.2-10.806,1.906-1.407,8.109-5.93,8.109-5.93,1.1-.84,2.262-1.809,2.262-1.809a22.764,22.764,0,0,0,2.931,7.7,21.177,21.177,0,0,1,2.949,10.072c.129,4.2.129,30.3.129,30.3Z" transform="translate(-495.925 -20.984)" fill="#b7c8d9"/>
    <path id="パス_55058" data-name="パス 55058" d="M594.248,142.216s-.222-18.944-2.113-29.524c-1.422-7.948-3.435-9.5-5.2-10.806-1.906-1.407-8.109-5.93-8.109-5.93-1.1-.84-2.262-1.809-2.262-1.809a22.766,22.766,0,0,1-2.931,7.7,21.185,21.185,0,0,0-2.949,10.072c-.129,4.2-.129,30.3-.129,30.3Z" transform="translate(-505.571 -20.984)" fill="#b7c8d9"/>
  </g>
</svg>
