<svg xmlns="http://www.w3.org/2000/svg" width="250" height="250" viewBox="0 0 250 250">
  <g id="グループ_9650" data-name="グループ 9650" transform="translate(0 -0.334)">
    <rect id="長方形_6705" data-name="長方形 6705" width="250" height="250" transform="translate(0 0.334)" fill="none"/>
    <path id="パス_55104" data-name="パス 55104" d="M300.025,104.05H314.4a2.1,2.1,0,0,0,2.1-2.1V87.577a2.1,2.1,0,0,0-2.1-2.1H300.025a2.1,2.1,0,0,0-2.1,2.1v14.376a2.1,2.1,0,0,0,2.1,2.1" transform="translate(-238.772 21.502)" fill="#0a71ad"/>
    <path id="パス_55105" data-name="パス 55105" d="M322.673,104.05h14.376a2.1,2.1,0,0,0,2.1-2.1V87.577a2.1,2.1,0,0,0-2.1-2.1H322.673a2.1,2.1,0,0,0-2.1,2.1v14.376a2.1,2.1,0,0,0,2.1,2.1" transform="translate(-233.12 21.502)" fill="#0a71ad"/>
    <path id="パス_55106" data-name="パス 55106" d="M345.322,104.05H359.7a2.1,2.1,0,0,0,2.1-2.1V87.577a2.1,2.1,0,0,0-2.1-2.1H345.322a2.1,2.1,0,0,0-2.1,2.1v14.376a2.1,2.1,0,0,0,2.1,2.1" transform="translate(-227.467 21.502)" fill="#0a71ad"/>
    <path id="パス_55107" data-name="パス 55107" d="M367.97,104.05h14.376a2.1,2.1,0,0,0,2.1-2.1V87.577a2.1,2.1,0,0,0-2.1-2.1H367.97a2.1,2.1,0,0,0-2.1,2.1v14.376a2.1,2.1,0,0,0,2.1,2.1" transform="translate(-221.815 21.502)" fill="#0a71ad"/>
    <path id="パス_55108" data-name="パス 55108" d="M390.619,104.05H405a2.1,2.1,0,0,0,2.1-2.1V87.577a2.1,2.1,0,0,0-2.1-2.1H390.619a2.1,2.1,0,0,0-2.1,2.1v14.376a2.1,2.1,0,0,0,2.1,2.1" transform="translate(-216.162 21.502)" fill="#0a71ad"/>
    <path id="パス_55109" data-name="パス 55109" d="M300.025,128.9H314.4a2.1,2.1,0,0,0,2.1-2.1V112.429a2.1,2.1,0,0,0-2.1-2.1H300.025a2.1,2.1,0,0,0-2.1,2.1v14.376a2.1,2.1,0,0,0,2.1,2.1" transform="translate(-238.772 27.704)" fill="#0a71ad"/>
    <path id="パス_55110" data-name="パス 55110" d="M322.673,128.9h14.376a2.1,2.1,0,0,0,2.1-2.1V112.429a2.1,2.1,0,0,0-2.1-2.1H322.673a2.1,2.1,0,0,0-2.1,2.1v14.376a2.1,2.1,0,0,0,2.1,2.1" transform="translate(-233.12 27.704)" fill="#0a71ad"/>
    <path id="パス_55111" data-name="パス 55111" d="M345.322,128.9H359.7a2.1,2.1,0,0,0,2.1-2.1V112.429a2.1,2.1,0,0,0-2.1-2.1H345.322a2.1,2.1,0,0,0-2.1,2.1v14.376a2.1,2.1,0,0,0,2.1,2.1" transform="translate(-227.467 27.704)" fill="#0a71ad"/>
    <path id="パス_55112" data-name="パス 55112" d="M367.97,128.9h14.376a2.1,2.1,0,0,0,2.1-2.1V112.429a2.1,2.1,0,0,0-2.1-2.1H367.97a2.1,2.1,0,0,0-2.1,2.1v14.376a2.1,2.1,0,0,0,2.1,2.1" transform="translate(-221.815 27.704)" fill="#0a71ad"/>
    <path id="パス_55113" data-name="パス 55113" d="M390.619,128.9H405a2.1,2.1,0,0,0,2.1-2.1V112.429a2.1,2.1,0,0,0-2.1-2.1H390.619a2.1,2.1,0,0,0-2.1,2.1v14.376a2.1,2.1,0,0,0,2.1,2.1" transform="translate(-216.162 27.704)" fill="#0a71ad"/>
    <path id="パス_55114" data-name="パス 55114" d="M300.025,153.754H314.4a2.1,2.1,0,0,0,2.1-2.1V137.281a2.1,2.1,0,0,0-2.1-2.1H300.025a2.1,2.1,0,0,0-2.1,2.1v14.376a2.1,2.1,0,0,0,2.1,2.1" transform="translate(-238.772 33.906)" fill="#0a71ad"/>
    <path id="パス_55115" data-name="パス 55115" d="M322.673,153.754h14.376a2.1,2.1,0,0,0,2.1-2.1V137.281a2.1,2.1,0,0,0-2.1-2.1H322.673a2.1,2.1,0,0,0-2.1,2.1v14.376a2.1,2.1,0,0,0,2.1,2.1" transform="translate(-233.12 33.906)" fill="#0a71ad"/>
    <path id="パス_55116" data-name="パス 55116" d="M345.322,153.754H359.7a2.1,2.1,0,0,0,2.1-2.1V137.281a2.1,2.1,0,0,0-2.1-2.1H345.322a2.1,2.1,0,0,0-2.1,2.1v14.376a2.1,2.1,0,0,0,2.1,2.1" transform="translate(-227.467 33.906)" fill="#0a71ad"/>
    <path id="パス_55117" data-name="パス 55117" d="M367.97,153.754h14.376a2.1,2.1,0,0,0,2.1-2.1V137.281a2.1,2.1,0,0,0-2.1-2.1H367.97a2.1,2.1,0,0,0-2.1,2.1v14.376a2.1,2.1,0,0,0,2.1,2.1" transform="translate(-221.815 33.906)" fill="#0a71ad"/>
    <path id="パス_55118" data-name="パス 55118" d="M390.619,153.754H405a2.1,2.1,0,0,0,2.1-2.1V137.281a2.1,2.1,0,0,0-2.1-2.1H390.619a2.1,2.1,0,0,0-2.1,2.1v14.376a2.1,2.1,0,0,0,2.1,2.1" transform="translate(-216.162 33.906)" fill="#0a71ad"/>
    <path id="パス_55119" data-name="パス 55119" d="M449.658,43.75H425.7c-.024,0-.047,0-.071,0a11.262,11.262,0,0,0-22.416,0c-.024,0-.048,0-.071,0h-70.71c-.024,0-.047,0-.071,0a11.263,11.263,0,0,0-22.416,0c-.024,0-.047,0-.072,0H285.907a3.875,3.875,0,0,0-3.876,3.875V195.673a3.877,3.877,0,0,0,3.876,3.876H449.658a3.875,3.875,0,0,0,3.875-3.876V47.625a3.874,3.874,0,0,0-3.875-3.875m-42.629,2.36a7.388,7.388,0,1,1,14.776,0V61.7a7.388,7.388,0,1,1-14.776,0Zm-93.27,0a7.389,7.389,0,1,1,14.777,0V61.7a7.389,7.389,0,1,1-14.777,0ZM448.408,194.424H287.157V82.5H448.408Z" transform="translate(-242.74 8.553)" fill="#0a71ad"/>
  </g>
</svg>
