<svg xmlns="http://www.w3.org/2000/svg" width="250" height="250" viewBox="0 0 250 250">
  <g id="グループ_9648" data-name="グループ 9648" transform="translate(0)">
    <rect id="長方形_6704" data-name="長方形 6704" width="250" height="250" transform="translate(0)" fill="none"/>
    <path id="パス_55096" data-name="パス 55096" d="M226.532,139.26l-210.938.1s0,10.115.006,16.048,7.477,10.723,16.7,10.719l177.547-.085c9.211-.005,16.693-4.813,16.689-10.735Zm-89.6,17.434-31.733.016a3.042,3.042,0,1,1,0-6.084l31.734-.016a3.042,3.042,0,0,1,0,6.084" transform="translate(3.977 34.756)" fill="#0a71ad"/>
    <path id="パス_55097" data-name="パス 55097" d="M205.836,51.217A11.963,11.963,0,0,0,193.9,39.239l-152.617.077a11.954,11.954,0,0,0-11.92,11.99l.054,101.934,176.469-.089Zm-18.375,86.337H47.8V54.925H187.461Z" transform="translate(7.414 9.793)" fill="#0a71ad"/>
    <path id="パス_55098" data-name="パス 55098" d="M150.691,74.282h-65.5a2.89,2.89,0,0,1,0-5.779h65.5a2.89,2.89,0,1,1,0,5.779" transform="translate(20.626 17.097)" fill="#0a71ad"/>
    <path id="パス_55099" data-name="パス 55099" d="M74.405,74.282H63.545a2.89,2.89,0,1,1,0-5.779h10.86a2.89,2.89,0,0,1,0,5.779" transform="translate(15.223 17.097)" fill="#0a71ad"/>
    <path id="パス_55100" data-name="パス 55100" d="M150.691,88.321h-65.5a2.89,2.89,0,0,1,0-5.779h65.5a2.89,2.89,0,1,1,0,5.779" transform="translate(20.626 20.6)" fill="#0a71ad"/>
    <path id="パス_55101" data-name="パス 55101" d="M74.405,88.321H63.545a2.89,2.89,0,1,1,0-5.779h10.86a2.89,2.89,0,0,1,0,5.779" transform="translate(15.223 20.6)" fill="#0a71ad"/>
    <path id="パス_55102" data-name="パス 55102" d="M150.691,102.361h-65.5a2.89,2.89,0,0,1,0-5.779h65.5a2.89,2.89,0,1,1,0,5.779" transform="translate(20.626 24.105)" fill="#0a71ad"/>
    <path id="パス_55103" data-name="パス 55103" d="M74.405,102.361H63.545a2.89,2.89,0,1,1,0-5.779h10.86a2.89,2.89,0,0,1,0,5.779" transform="translate(15.223 24.105)" fill="#0a71ad"/>
  </g>
</svg>
