<svg xmlns="http://www.w3.org/2000/svg" width="250" height="250" viewBox="0 0 250 250">
  <g id="グループ_9641" data-name="グループ 9641" transform="translate(0 0.166)">
    <rect id="長方形_6708" data-name="長方形 6708" width="250" height="250" transform="translate(0 -0.166)" fill="none"/>
    <path id="パス_55083" data-name="パス 55083" d="M332.161,270.934a2.672,2.672,0,0,0,0,5.343,40.414,40.414,0,0,1,40.369,40.369,2.672,2.672,0,0,0,5.343,0,45.764,45.764,0,0,0-45.712-45.712" transform="translate(-230.895 -221.997)" fill="#0a71ad"/>
    <path id="パス_55084" data-name="パス 55084" d="M460.476,421.621l-40.582-41.035a12.279,12.279,0,0,0-12.456-3.063L394.5,364.445a66.249,66.249,0,1,0-8.064,7.735l13.056,13.2a12.276,12.276,0,0,0,2.924,12.49L443,438.9a12.289,12.289,0,1,0,17.475-17.282m-115.629-48.1a52.781,52.781,0,1,1,52.782-52.782,52.842,52.842,0,0,1-52.782,52.782" transform="translate(-243.581 -226.087)" fill="#0a71ad"/>
  </g>
</svg>
