<svg xmlns="http://www.w3.org/2000/svg" width="250" height="250" viewBox="0 0 250 250">
  <g id="グループ_9642" data-name="グループ 9642" transform="translate(0 -0.277)">
    <rect id="長方形_6707" data-name="長方形 6707" width="250" height="250" transform="translate(0 0.277)" fill="none"/>
    <path id="パス_55120" data-name="パス 55120" d="M177.826,705.814H59.2a6.545,6.545,0,0,1-6.537-6.536V609a.29.29,0,0,0-.289-.29H32.382a6.537,6.537,0,0,1-3.87-11.806l86.046-71.481c.066-.055.135-.107.2-.156a6.562,6.562,0,0,1,7.5,0q.107.075.206.157l86.046,71.481a6.537,6.537,0,0,1-3.869,11.806H184.651a.29.29,0,0,0-.289.29v90.277a6.545,6.545,0,0,1-6.537,6.536M118.4,530.358,32.419,601.781c-.066.055-.135.107-.2.156a.238.238,0,0,0-.109.324c.064.2.171.2.276.2H52.372A6.545,6.545,0,0,1,58.909,609v90.277a.289.289,0,0,0,.289.289H177.826a.289.289,0,0,0,.289-.289V609a6.545,6.545,0,0,1,6.537-6.538h19.992c.1,0,.211,0,.275-.2a.238.238,0,0,0-.11-.324c-.07-.049-.139-.1-.2-.156l-85.976-71.423a.3.3,0,0,0-.231,0" transform="translate(6.531 -489.94)" fill="#0a71ad"/>
    <path id="パス_55121" data-name="パス 55121" d="M121.19,629.057h0a3.123,3.123,0,0,1-3.006-2.281c-3.61-12.851-11-22.08-19.758-24.685a3.124,3.124,0,0,1,0-5.988c8.761-2.607,16.148-11.836,19.758-24.687a3.123,3.123,0,0,1,6.014,0c3.611,12.851,11,22.08,19.758,24.687a3.124,3.124,0,0,1,0,5.988c-8.761,2.605-16.147,11.835-19.758,24.685a3.124,3.124,0,0,1-3.008,2.281M106.74,599.1c5.892,3.715,10.911,9.855,14.45,17.682,3.54-7.826,8.561-13.967,14.451-17.682-5.891-3.716-10.911-9.857-14.451-17.683-3.539,7.826-8.558,13.967-14.45,17.683" transform="translate(24.092 -478.698)" fill="#0a71ad"/>
    <path id="パス_55122" data-name="パス 55122" d="M87.813,652.793a3.123,3.123,0,0,1-3.008-2.279c-2.547-9.065-7.916-15.822-14.013-17.637a3.124,3.124,0,0,1,0-5.988c6.1-1.815,11.466-8.573,14.013-17.638a3.123,3.123,0,0,1,6.014,0c2.547,9.064,7.916,15.823,14.013,17.638a3.124,3.124,0,0,1,0,5.988c-6.1,1.814-11.465,8.572-14.011,17.637a3.122,3.122,0,0,1-3.006,2.279m-9.184-22.91a30.223,30.223,0,0,1,9.184,11.139A30.233,30.233,0,0,1,97,629.883a30.237,30.237,0,0,1-9.183-11.14,30.24,30.24,0,0,1-9.184,11.14" transform="translate(17.196 -469.255)" fill="#0a71ad"/>
  </g>
</svg>
