<svg id="PTN小文字" xmlns="http://www.w3.org/2000/svg" xmlns:xlink="http://www.w3.org/1999/xlink" width="119.058" height="99.111" viewBox="0 0 119.058 99.111">
  <defs>
    <radialGradient id="radial-gradient" cx="0.539" cy="1.541" r="0.337" gradientTransform="translate(0.157) scale(0.709 1)" gradientUnits="objectBoundingBox">
      <stop offset="0" stop-color="#0081cc"/>
      <stop offset="1" stop-color="#07084d"/>
    </radialGradient>
    <radialGradient id="radial-gradient-2" cx="0.5" cy="0.424" r="0.597" gradientTransform="translate(0.136 0.051) scale(0.729 0.88)" xlink:href="#radial-gradient"/>
    <radialGradient id="radial-gradient-3" cx="0.539" cy="1.539" r="0.33" gradientTransform="translate(0.143) scale(0.735 1)" gradientUnits="objectBoundingBox">
      <stop offset="0" stop-color="#f5b1a2"/>
      <stop offset="0.66" stop-color="#e6002d"/>
      <stop offset="1" stop-color="#ca0915"/>
    </radialGradient>
    <radialGradient id="radial-gradient-4" cx="0.481" cy="0.005" r="0.991" gradientTransform="translate(0.148) scale(0.703 1)" xlink:href="#radial-gradient-3"/>
    <radialGradient id="radial-gradient-5" cx="0.489" cy="6.138" r="3.277" gradientTransform="translate(0.452) scale(0.097 1)" xlink:href="#radial-gradient"/>
  </defs>
  <g id="グループ_8508" data-name="グループ 8508">
    <path id="パス_54913" data-name="パス 54913" d="M80.524,2.35A11.561,11.561,0,0,0,68.982,13.888v58.78l11.81-10.3V32.537a2,2,0,0,1,.856-1.643,2.01,2.01,0,0,1,3.171,1.643V48.452l11.81-10.3V15.5L119.058,2.35H80.524Zm4.295,23.68a2,2,0,0,1-2.349,1.979,2.1,2.1,0,0,1-1.678-2.1v-10.2a2.013,2.013,0,0,1,4.026,0v10.3ZM38.534,2.35H0L22.429,15.5V38.222l11.81,10.3V32.537a2.019,2.019,0,0,1,2.013-2.012,2.1,2.1,0,0,1,1.158.369,2,2,0,0,1,.856,1.643V62.455l11.81,10.3V42.263c0-6.691-2.55-10.6-8.254-12.678l-1.158-.419,9.411-7.4V13.9A11.561,11.561,0,0,0,38.534,2.367Zm-.268,23.68a2,2,0,0,1-2.349,1.979,2.1,2.1,0,0,1-1.678-2.1v-10.2a2.013,2.013,0,0,1,4.026,0v10.3ZM53.515,86.755h11.81V15.548L59.42,12.68l-5.905,2.868V86.772Z" transform="translate(0 1.6)" fill="url(#radial-gradient)"/>
    <path id="パス_54914" data-name="パス 54914" d="M53.165,85.8V15.874l5.217-2.5,5.217,2.5V85.8ZM37.917,61.873V32.258a2.719,2.719,0,0,0-1.157-2.214,2.7,2.7,0,0,0-4.244,2.214V46.747L22.082,37.641V14.834L1.5,2.76H37.515A10.859,10.859,0,0,1,48.368,13.61v7.546L38.253,29.105l2.315.838c5.468,2,7.8,5.584,7.8,12.041V70.979L37.934,61.873Zm-2.7-49.1a2.684,2.684,0,0,0-2.684,2.7v10.2a2.757,2.757,0,0,0,2.248,2.767,4.114,4.114,0,0,0,.453.034,2.7,2.7,0,0,0,2.7-2.7v-10.3a2.707,2.707,0,0,0-1.812-2.549,2.676,2.676,0,0,0-.889-.151Zm33.431.855A10.859,10.859,0,0,1,79.5,2.777h36L94.9,14.851V37.574L84.466,46.68V32.275a2.692,2.692,0,1,0-5.385,0V61.806L68.648,70.912V13.61Zm13.134-.855a2.684,2.684,0,0,0-2.684,2.7v10.2a2.757,2.757,0,0,0,2.248,2.767,4.114,4.114,0,0,0,.453.034,2.7,2.7,0,0,0,2.7-2.7v-10.3a2.707,2.707,0,0,0-1.812-2.549,2.676,2.676,0,0,0-.889-.151Z" transform="translate(1.021 1.879)" fill="url(#radial-gradient-2)"/>
    <path id="パス_54915" data-name="パス 54915" d="M30.41,7.143l8.421,5.227,8.4-5.227V0H30.41Z" transform="translate(20.589)" fill="url(#radial-gradient-3)"/>
    <path id="パス_54916" data-name="パス 54916" d="M30.83.42V6.454l7.715,4.807,7.7-4.807V.42Z" transform="translate(20.875 0.286)" fill="url(#radial-gradient-4)"/>
    <path id="パス_54917" data-name="パス 54917" d="M19.814,58.427a.632.632,0,0,1-.1-.252H19.5V59.7h.218a.445.445,0,0,1,.1-.319.347.347,0,0,1,.251-.067h1.524v1.025c-.251.084-.57.168-.921.252a5.493,5.493,0,0,1-1.223.118,3.224,3.224,0,0,1-.888-.118,2.374,2.374,0,0,1-.771-.387,1.739,1.739,0,0,1-.553-.689,2.354,2.354,0,0,1-.2-1.008,2.433,2.433,0,0,1,.2-1.025,1.865,1.865,0,0,1,.553-.689,2.555,2.555,0,0,1,.771-.387,3.142,3.142,0,0,1,.888-.118,3.961,3.961,0,0,1,.754.05,4.385,4.385,0,0,1,.737.151,2,2,0,0,1,.57.252.391.391,0,0,1,.218.319.467.467,0,0,1-.017.151l.235.067.7-1.58-.151-.084a.837.837,0,0,0-.117.084.25.25,0,0,1-.168.05,2.292,2.292,0,0,1-.3-.084c-.168-.05-.369-.1-.62-.168a8.565,8.565,0,0,0-.854-.168,6.442,6.442,0,0,0-1.005-.067,4.844,4.844,0,0,0-1.524.218,3.577,3.577,0,0,0-1.173.639,2.8,2.8,0,0,0-.754,1.008,3.16,3.16,0,0,0-.268,1.345,3.109,3.109,0,0,0,.268,1.345,2.847,2.847,0,0,0,.754,1.008,3.265,3.265,0,0,0,1.173.622,5.383,5.383,0,0,0,1.524.219c.285,0,.586,0,.888-.017a4.172,4.172,0,0,0,.9-.118,5.467,5.467,0,0,0,.888-.286,4.52,4.52,0,0,0,.838-.454v-.185a1.492,1.492,0,0,0-.168-.084c-.05-.017-.067-.084-.067-.151V59.015c0-.1.017-.168.067-.2a.582.582,0,0,1,.3-.084v-.219h-3a.47.47,0,0,1-.251-.05ZM37.268,61.25l-1.591-2.286a2.563,2.563,0,0,0,1.256-.571,1.537,1.537,0,0,0,.469-1.21,1.98,1.98,0,0,0-.184-.874,1.413,1.413,0,0,0-.519-.571,2.181,2.181,0,0,0-.8-.319,4.949,4.949,0,0,0-1.039-.1H30.769v.218c.235,0,.352.067.352.219V61.2c0,.151-.117.219-.352.219v.218h2.077v-.218a.571.571,0,0,1-.285-.05.186.186,0,0,1-.084-.168V59.065h1.709l1.323,1.882q.1.126.151.2a.269.269,0,0,1,.05.134c0,.034-.034.067-.084.1a.6.6,0,0,1-.184.034v.219h2.245v-.219a1.414,1.414,0,0,1-.218-.017c-.084,0-.134-.067-.2-.151Zm-1.993-3.193a2.913,2.913,0,0,1-.72.067H32.477V56.342h2.077a3,3,0,0,1,.72.067,1.412,1.412,0,0,1,.452.185.636.636,0,0,1,.235.286.963.963,0,0,1,0,.706.928.928,0,0,1-.235.286,1.412,1.412,0,0,1-.452.185ZM51.69,56.04a3.669,3.669,0,0,0-1.24-.588,4.553,4.553,0,0,0-2.68,0,4.439,4.439,0,0,0-1.24.588,3.315,3.315,0,0,0-.921,1.008,3.077,3.077,0,0,0,0,2.857,3.315,3.315,0,0,0,.921,1.008,3.634,3.634,0,0,0,1.24.571,4.949,4.949,0,0,0,2.68,0,3.98,3.98,0,0,0,1.24-.571,3.132,3.132,0,0,0,.921-1.008,3.077,3.077,0,0,0,0-2.857A3.315,3.315,0,0,0,51.69,56.04Zm-.268,3.345a2.263,2.263,0,0,1-.586.672,2.709,2.709,0,0,1-.821.42,2.78,2.78,0,0,1-1.809,0,2.919,2.919,0,0,1-.821-.42,2.05,2.05,0,0,1-.586-.672,1.874,1.874,0,0,1,0-1.815,2.263,2.263,0,0,1,.586-.672,2.919,2.919,0,0,1,.821-.42,2.78,2.78,0,0,1,1.809,0,2.919,2.919,0,0,1,.821.42,2.05,2.05,0,0,1,.586.672,1.874,1.874,0,0,1,0,1.815Zm14.255-3.849c.235,0,.352.067.352.219v3.6a1.111,1.111,0,0,1-.486,1.042,2.916,2.916,0,0,1-1.424.286,2.962,2.962,0,0,1-1.424-.286,1.111,1.111,0,0,1-.486-1.042v-3.6c0-.151.084-.219.268-.219v-.218h-1.96v.218c.218,0,.335.067.335.219V59.3a3.025,3.025,0,0,0,.2,1.177,1.736,1.736,0,0,0,.6.74,2.461,2.461,0,0,0,1.005.37,9.633,9.633,0,0,0,2.781,0,2.461,2.461,0,0,0,1.005-.37,1.737,1.737,0,0,0,.6-.74,2.967,2.967,0,0,0,.2-1.177V55.754c0-.151.1-.219.285-.219v-.218h-1.91v.218Zm15.628.219a3.278,3.278,0,0,0-1.809-.42H75.275v.219c.3,0,.436.067.436.218v5.446c0,.151-.151.218-.436.218v.219H77.47v-.219c-.251,0-.385-.067-.385-.218V59.082H79.5a3.278,3.278,0,0,0,1.809-.42,1.926,1.926,0,0,0,0-2.891Zm-.988,2.067a1.408,1.408,0,0,1-.67.151H77.1V56.443h2.546a1.363,1.363,0,0,1,.67.151.785.785,0,0,1,0,1.21Z" transform="translate(10.695 37.424)" fill="url(#radial-gradient-5)"/>
  </g>
</svg>
