<svg id="PTN小文字" xmlns="http://www.w3.org/2000/svg" width="74.478" height="62" viewBox="0 0 74.478 62">
  <g id="グループ_8508" data-name="グループ 8508">
    <path id="パス_54913" data-name="パス 54913" d="M50.372,2.35a7.233,7.233,0,0,0-7.22,7.219V46.345L50.54,39.9V21.237a1.249,1.249,0,0,1,.535-1.028,1.257,1.257,0,0,1,1.983,1.028v9.957l7.388-6.442V10.576L74.478,2.35H50.372Zm2.687,14.816A1.252,1.252,0,0,1,51.59,18.4a1.311,1.311,0,0,1-1.049-1.312V10.713a1.259,1.259,0,0,1,2.519,0v6.442ZM24.105,2.35H0l14.031,8.226V24.794l7.388,6.442v-10a1.263,1.263,0,0,1,1.259-1.259,1.315,1.315,0,0,1,.724.231,1.249,1.249,0,0,1,.535,1.028V39.955L31.325,46.4V27.322c0-4.187-1.6-6.631-5.163-7.932l-.724-.262L31.325,14.5V9.579a7.233,7.233,0,0,0-7.22-7.219Zm-.168,14.816A1.252,1.252,0,0,1,22.468,18.4a1.311,1.311,0,0,1-1.049-1.312V10.713a1.259,1.259,0,0,1,2.519,0v6.442Zm9.539,37.994h7.388V10.608L37.171,8.813l-3.694,1.794V55.17Z" transform="translate(0 0.118)" fill="#fff"/>
    <path id="パス_54914" data-name="パス 54914" d="M33.821,54.718V10.965L37.085,9.4l3.264,1.563V54.718ZM24.282,39.746V21.216a1.7,1.7,0,0,0-.724-1.385A1.688,1.688,0,0,0,20.9,21.216v9.065l-6.527-5.7V10.315L1.5,2.76H24.03a6.793,6.793,0,0,1,6.79,6.789V14.27l-6.328,4.973,1.448.525c3.421,1.249,4.88,3.494,4.88,7.534V45.443l-6.527-5.7ZM22.593,9.024a1.679,1.679,0,0,0-1.679,1.689v6.379a1.725,1.725,0,0,0,1.406,1.731,2.573,2.573,0,0,0,.283.021,1.688,1.688,0,0,0,1.69-1.689V10.713a1.694,1.694,0,0,0-1.133-1.595,1.674,1.674,0,0,0-.556-.094Zm20.914.535A6.793,6.793,0,0,1,50.3,2.77h22.52L59.93,10.325V24.542L53.4,30.24V21.227a1.684,1.684,0,1,0-3.369,0V39.7l-6.527,5.7V9.549Zm8.217-.535a1.679,1.679,0,0,0-1.679,1.689v6.379a1.725,1.725,0,0,0,1.406,1.731,2.573,2.573,0,0,0,.283.021,1.688,1.688,0,0,0,1.69-1.689V10.713A1.694,1.694,0,0,0,52.29,9.118a1.674,1.674,0,0,0-.556-.094Z" transform="translate(0.076 0.139)" fill="#fff"/>
    <path id="パス_54915" data-name="パス 54915" d="M30.41,4.464l5.262,3.267,5.252-3.267V0H30.41Z" transform="translate(1.498)" fill="#fff"/>
    <path id="パス_54916" data-name="パス 54916" d="M30.83.42V4.191l4.821,3,4.811-3V.42Z" transform="translate(1.519 0.021)" fill="#fff"/>
    <path id="パス_54917" data-name="パス 54917" d="M18.279,57.235a.394.394,0,0,1-.063-.158H18.08v.956h.136a.278.278,0,0,1,.063-.2.217.217,0,0,1,.157-.042h.954v.641c-.157.053-.357.105-.577.158a3.444,3.444,0,0,1-.766.074,2.022,2.022,0,0,1-.556-.074,1.487,1.487,0,0,1-.482-.242,1.087,1.087,0,0,1-.346-.431,1.469,1.469,0,0,1-.126-.63,1.518,1.518,0,0,1,.126-.641,1.166,1.166,0,0,1,.346-.431,1.6,1.6,0,0,1,.482-.242,1.97,1.97,0,0,1,.556-.074,2.484,2.484,0,0,1,.472.032,2.749,2.749,0,0,1,.461.095,1.254,1.254,0,0,1,.357.158.244.244,0,0,1,.136.2.291.291,0,0,1-.01.095l.147.042.44-.987-.094-.053a.524.524,0,0,0-.073.053.156.156,0,0,1-.1.032,1.438,1.438,0,0,1-.189-.053c-.1-.032-.231-.063-.388-.105a5.371,5.371,0,0,0-.535-.105,4.041,4.041,0,0,0-.629-.042,3.037,3.037,0,0,0-.954.137,2.24,2.24,0,0,0-.734.4,1.75,1.75,0,0,0-.472.63,1.972,1.972,0,0,0-.168.84,1.94,1.94,0,0,0,.168.84,1.78,1.78,0,0,0,.472.63,2.045,2.045,0,0,0,.734.389,3.376,3.376,0,0,0,.954.137c.178,0,.367,0,.556-.011a2.616,2.616,0,0,0,.566-.074A3.427,3.427,0,0,0,19.716,59a2.831,2.831,0,0,0,.524-.284V58.6a.934.934,0,0,0-.1-.053c-.031-.011-.042-.053-.042-.095V57.6c0-.063.01-.105.042-.126a.365.365,0,0,1,.189-.053v-.137H18.447a.294.294,0,0,1-.157-.032ZM29.206,59l-1-1.429A1.606,1.606,0,0,0,29,57.214a.96.96,0,0,0,.294-.756,1.236,1.236,0,0,0-.115-.546.884.884,0,0,0-.325-.357,1.367,1.367,0,0,0-.5-.2,3.1,3.1,0,0,0-.65-.063H25.138v.137c.147,0,.22.042.22.137v3.4c0,.095-.073.137-.22.137v.137h1.3V59.1a.358.358,0,0,1-.178-.032.116.116,0,0,1-.052-.105V57.634h1.07l.828,1.176q.063.079.094.126a.168.168,0,0,1,.031.084c0,.021-.021.042-.052.063a.377.377,0,0,1-.115.021v.137h1.405V59.1a.887.887,0,0,1-.136-.01c-.052,0-.084-.042-.126-.095Zm-1.248-2a1.826,1.826,0,0,1-.451.042h-1.3V55.933h1.3a1.881,1.881,0,0,1,.451.042.885.885,0,0,1,.283.116.4.4,0,0,1,.147.179.6.6,0,0,1,0,.441.58.58,0,0,1-.147.179.885.885,0,0,1-.283.116Zm10.277-1.26a2.3,2.3,0,0,0-.776-.368,2.855,2.855,0,0,0-1.678,0,2.781,2.781,0,0,0-.776.368,2.073,2.073,0,0,0-.577.63,1.92,1.92,0,0,0,0,1.786,2.073,2.073,0,0,0,.577.63,2.277,2.277,0,0,0,.776.357,3.1,3.1,0,0,0,1.678,0,2.494,2.494,0,0,0,.776-.357,1.959,1.959,0,0,0,.577-.63,1.92,1.92,0,0,0,0-1.786A2.073,2.073,0,0,0,38.235,55.744Zm-.168,2.09a1.415,1.415,0,0,1-.367.42,1.7,1.7,0,0,1-.514.263,1.743,1.743,0,0,1-1.133,0,1.829,1.829,0,0,1-.514-.263,1.282,1.282,0,0,1-.367-.42,1.169,1.169,0,0,1,0-1.134,1.415,1.415,0,0,1,.367-.42,1.829,1.829,0,0,1,.514-.263,1.743,1.743,0,0,1,1.133,0,1.829,1.829,0,0,1,.514.263,1.282,1.282,0,0,1,.367.42,1.169,1.169,0,0,1,0,1.134Zm8.924-2.405c.147,0,.22.042.22.137v2.248a.694.694,0,0,1-.3.651,1.828,1.828,0,0,1-.891.179,1.857,1.857,0,0,1-.891-.179.694.694,0,0,1-.3-.651V55.565c0-.095.052-.137.168-.137v-.137H43.762v.137c.136,0,.21.042.21.137v2.216a1.887,1.887,0,0,0,.126.735,1.086,1.086,0,0,0,.378.462,1.542,1.542,0,0,0,.629.231,6.042,6.042,0,0,0,1.741,0,1.542,1.542,0,0,0,.629-.231,1.086,1.086,0,0,0,.378-.462,1.851,1.851,0,0,0,.126-.735V55.565c0-.095.063-.137.178-.137v-.137h-1.2v.137Zm9.784.137a2.055,2.055,0,0,0-1.133-.263H53v.137c.189,0,.273.042.273.137v3.4c0,.095-.094.137-.273.137v.137h1.374v-.137c-.157,0-.241-.042-.241-.137V57.645h1.51a2.055,2.055,0,0,0,1.133-.263,1.2,1.2,0,0,0,0-1.807Zm-.619,1.292a.883.883,0,0,1-.419.095H54.144V56h1.594a.854.854,0,0,1,.419.095.49.49,0,0,1,0,.756Z" transform="translate(0.791 2.727)" fill="#fff"/>
  </g>
</svg>
