<svg id="_ャピタル調整版" xmlns="http://www.w3.org/2000/svg" width="192.992" height="25.575" viewBox="0 0 192.992 25.575">
  <path id="パス_54931" data-name="パス 54931" d="M108.463,3.615c3.794,0,6.527.947,8.235,2.393a5.675,5.675,0,0,1,1.9,4.517,6.47,6.47,0,0,1-2.163,4.972c-2.2,1.971-4.063,2.316-8.12,2.316-.986,0-1.593-.038-2.617-.115v6.795c0,2.885.493,3.378,3.57,3.532v.723H98.64v-.723c2.962-.23,3.187-.646,3.187-3.909V7.826c0-2.809-.378-3.263-3.187-3.493V3.61h9.828Zm-2.77,12.56c.871.077,1.555.115,2.316.115,4.172,0,6.45-2.163,6.45-5.579,0-4.172-2.278-5.694-7.441-5.694-1.1,0-1.33.339-1.33,1.369v9.79Z" transform="translate(-98.64 -3.61)" fill="#fff"/>
  <path id="パス_54932" data-name="パス 54932" d="M158.505,35.662v-.476c.9,0,1.084-.049,1.385-.224a.723.723,0,0,0,.35-.6,5.32,5.32,0,0,0-.476-1.763l-1.035-2.365h-6.6L150.971,33.1a3.329,3.329,0,0,0-.224,1.057c0,.783.553,1.035,1.763,1.035v.476H147.5v-.476c1.462-.153,1.686-.679,3.17-4.2L155.855,18.7h.5l6.193,14.17c.706,1.637,1.057,2.163,2.365,2.316v.476H158.5ZM155.461,22.27l-2.9,6.921h5.815Z" transform="translate(-120.748 -10.438)" fill="#fff"/>
  <path id="パス_54933" data-name="パス 54933" d="M209.506,35.907l-5.99-7.753-1.407.049v4.884c0,1.911.3,2.217,2.239,2.343v.476H197.4V35.43c1.889-.153,2.141-.427,2.141-2.645V22.032c0-1.862-.2-2.163-2.141-2.316V19.24h6.85a8.35,8.35,0,0,1,5.262,1.484,3.976,3.976,0,0,1,1.232,3.022c0,2.19-1.407,3.652-4.555,4.128l5.037,6.368a2.723,2.723,0,0,0,2.365,1.183V35.9h-4.079Zm-7.4-8.634c2.415-.049,3.3-.224,4.457-.854a3.186,3.186,0,0,0,1.435-2.869c0-2.267-1.484-3.373-4.6-3.373-.854,0-1.281.175-1.281,1.057v6.039Z" transform="translate(-143.326 -10.682)" fill="#fff"/>
  <path id="パス_54934" data-name="パス 54934" d="M258.311,23.517c-.553-2.77-1.21-3.219-3.876-3.219h-1.484V33.11c0,1.911.35,2.217,2.415,2.316V35.9h-7.348v-.476c2.092-.126,2.365-.405,2.365-2.617V20.292h-1.511c-2.666,0-3.345.454-3.849,3.219h-.6l.175-4.282h14.148l.175,4.282h-.6Z" transform="translate(-164.602 -10.678)" fill="#fff"/>
  <path id="パス_54935" data-name="パス 54935" d="M305.738,19.716c-.958.1-1.336.175-1.659.454-.476.427-.728.98-.728,2.973V36.186H302.9l-11.1-13.82v9.768c0,2.59.405,3.022,2.343,3.3v.476H288.25V35.43c2.064-.224,2.442-.6,2.442-3.3V21.052c-.832-1.035-1.21-1.336-2.442-1.336V19.24h4.282L302.25,31.4V22.843a3.871,3.871,0,0,0-.476-2.469c-.427-.476-.882-.531-1.988-.657V19.24h5.968v.476Z" transform="translate(-184.434 -10.682)" fill="#fff"/>
  <path id="パス_54936" data-name="パス 54936" d="M350.9,35.907H337.33V35.43c1.938-.126,2.19-.454,2.19-2.393V22.06c0-1.862-.3-2.239-2.19-2.343V19.24h13.343l.1,3.6h-.63c-.378-2.267-.958-2.645-3.876-2.645h-3.3c-.706,0-.882.1-.882.909v5.535h3.8c2.163,0,2.541-.427,2.842-2.415h.58v5.891h-.58c-.3-2.113-.679-2.442-2.842-2.442h-3.8v6.116c0,1.057.679,1.183,2.541,1.183h.9c3.6,0,4.681-.657,5.815-3.323h.706L350.9,35.9Z" transform="translate(-206.641 -10.682)" fill="#fff"/>
  <path id="パス_54937" data-name="パス 54937" d="M394.676,35.907l-5.99-7.753-1.407.049v4.884c0,1.911.3,2.217,2.239,2.343v.476H382.57V35.43c1.889-.153,2.141-.427,2.141-2.645V22.032c0-1.862-.2-2.163-2.141-2.316V19.24h6.85a8.35,8.35,0,0,1,5.262,1.484,3.976,3.976,0,0,1,1.232,3.022c0,2.19-1.407,3.652-4.555,4.128l5.032,6.368a2.723,2.723,0,0,0,2.365,1.183V35.9h-4.079Zm-7.4-8.634c2.415-.049,3.3-.224,4.457-.854a3.186,3.186,0,0,0,1.435-2.869c0-2.267-1.484-3.373-4.6-3.373-.854,0-1.281.175-1.281,1.057v6.039Z" transform="translate(-227.111 -10.682)" fill="#fff"/>
  <path id="パス_54938" data-name="パス 54938" d="M440.621,23.956a6.468,6.468,0,0,0-1.035-2.365,4.666,4.666,0,0,0-3.652-1.966,2.368,2.368,0,0,0-2.541,2.393c0,1.714,1.862,2.77,4.506,4.3,2.666,1.56,3.9,3.022,3.9,4.933,0,2.82-2.217,4.709-5.136,4.709a7.3,7.3,0,0,1-2.968-.58,3.224,3.224,0,0,0-1.183-.279.742.742,0,0,0-.706.832h-.553L430.53,30.6h.553c1.161,3.044,2.792,4.457,5.185,4.457a2.786,2.786,0,0,0,2.995-2.82,2.72,2.72,0,0,0-.728-1.988,17.6,17.6,0,0,0-4.227-2.918c-2.267-1.21-3.072-2.77-3.072-4.331a4.171,4.171,0,0,1,4.38-4.408,6.056,6.056,0,0,1,2.645.553,3.025,3.025,0,0,0,1.106.3c.427,0,.706-.3.8-.854h.531l.553,5.36h-.63Z" transform="translate(-248.812 -10.388)" fill="#fff"/>
</svg>
